# xmcd
# 
# Track frame offsets:
#     150
#     10885
#     23886
#     44058
#     59867
#     73745
#     87044
#     98656
#     110838
#     124563
#     136682
#     150308
#     167141
#     182155
#     197643
#     217117
#     227660
#     243233
#     265499
#     278335
#     292396
#     305037
#     316580
#     327910
#     344771
# 
# Disc length: 4737
# 
# Revision: 2
# Processed by: cddbd v1.5.2PL0 Copyright (c) Steve Scherf et al.
# Submitted via: BonkEnc v1.0.15
# 
DISCID=78127f19
DTITLE=Various Artist - Les Plus Grands Artistes De Blues [CD 2/4)
DYEAR=2005
DGENRE=Blues
TTITLE0=Ray Charles - I'm moving on
TTITLE1=Jimmy Reed - Shame shame shame
TTITLE2=John Mayall - Road Show
TTITLE3=Bo Diddley - Roadrunner
TTITLE4=Memphis Slim - My baby
TTITLE5=Charles Brown - Rockin' blues
TTITLE6=Arthur Crudup - My baby left me
TTITLE7=Lightnin' Hopkins - Have you ever loved a woman
TTITLE8=Big Bill Broonzy - Wee wee hours blues
TTITLE9=Eddie Boyd - Five long years
TTITLE10=Jelly Roll Morton - Jelly roll blues
TTITLE11=Muddy Waters - Sad sad day
TTITLE12=Sonny Terry and Brownee Mc Gree - Down by the riverside
TTITLE13=Johnny Otis - Bad luck shadow
TTITLE14=Jimmy Mc Griff - Jumping the blues
TTITLE15=Dr. John - One night late
TTITLE16=Mississippi Fred Mc Dowell - Big fat mama
TTITLE17=Buddy Guy and Junior Wells - Blue monday
TTITLE18=John Lee Hooker - I'm so excited
TTITLE19=Big Joe Turner - Back breaking blues
TTITLE20=Various Artist - Ray Charles - Can't you see darlin'
TTITLE21=Various Artist - Clarence Frogman Henry - You always hurt the one you love
TTITLE22=Various Artist - B.B. King - When your baby packs up and goes
TTITLE23=Various Artist - Memphis Slim - Cold bloosed woman
TTITLE24=Various Artist - Robert Johnson - Love is vain
EXTD=
EXTT0=
EXTT1=
EXTT2=
EXTT3=
EXTT4=
EXTT5=
EXTT6=
EXTT7=
EXTT8=
EXTT9=
EXTT10=
EXTT11=
EXTT12=
EXTT13=
EXTT14=
EXTT15=
EXTT16=
EXTT17=
EXTT18=
EXTT19=
EXTT20=
EXTT21=
EXTT22=
EXTT23=
EXTT24=
PLAYORDER=
